solid generatedByA2RI
facet normal 0.000000 -0.000000 -4.000000
	outer loop
		vertex 1.000000 1.000000 -1.000000
		vertex 1.000000 -1.000000 -1.000000
		vertex -1.000000 -1.000000 -1.000000
	endloop
endfacet
facet normal 0.000000 -0.000000 -4.000000
	outer loop
		vertex -1.000000 1.000000 -1.000000
		vertex 1.000000 1.000000 -1.000000
		vertex -1.000000 -1.000000 -1.000000
	endloop
endfacet
facet normal 4.000000 -0.000000 -0.000000
	outer loop
		vertex 1.000000 1.000000 -1.000000
		vertex 1.000000 1.000000 1.000000
		vertex 1.000000 -1.000000 -1.000000
	endloop
endfacet
facet normal 4.000000 -0.000000 0.000000
	outer loop
		vertex 1.000000 -1.000000 1.000000
		vertex 1.000000 -1.000000 -1.000000
		vertex 1.000000 1.000000 1.000000
	endloop
endfacet
facet normal -0.000000 -0.000000 4.000000
	outer loop
		vertex -1.000000 1.000000 1.000000
		vertex 1.000000 -1.000000 1.000000
		vertex 1.000000 1.000000 1.000000
	endloop
endfacet
facet normal 0.000000 -0.000000 4.000000
	outer loop
		vertex 1.000000 -1.000000 1.000000
		vertex -1.000000 1.000000 1.000000
		vertex -1.000000 -1.000000 1.000000
	endloop
endfacet
facet normal -4.000000 0.000000 0.000000
	outer loop
		vertex -1.000000 -1.000000 1.000000
		vertex -1.000000 1.000000 1.000000
		vertex -1.000000 1.000000 -1.000000
	endloop
endfacet
facet normal -4.000000 -0.000000 0.000000
	outer loop
		vertex -1.000000 -1.000000 1.000000
		vertex -1.000000 1.000000 -1.000000
		vertex -1.000000 -1.000000 -1.000000
	endloop
endfacet
facet normal -0.000000 4.000000 0.000000
	outer loop
		vertex -1.000000 1.000000 1.000000
		vertex 1.000000 1.000000 1.000000
		vertex 1.000000 1.000000 -1.000000
	endloop
endfacet
facet normal 0.000000 4.000000 0.000000
	outer loop
		vertex 1.000000 1.000000 -1.000000
		vertex -1.000000 1.000000 -1.000000
		vertex -1.000000 1.000000 1.000000
	endloop
endfacet
facet normal 0.000000 -4.000000 0.000000
	outer loop
		vertex 1.000000 -1.000000 -1.000000
		vertex 1.000000 -1.000000 1.000000
		vertex -1.000000 -1.000000 -1.000000
	endloop
endfacet
facet normal 0.000000 -4.000000 0.000000
	outer loop
		vertex -1.000000 -1.000000 1.000000
		vertex -1.000000 -1.000000 -1.000000
		vertex 1.000000 -1.000000 1.000000
	endloop
endfacet
endsolid generatedByA2RI
