ply
format ascii 1.0
comment zipper output
element vertex 56
property float x
property float y
property float z
element face 108
property list uchar int vertex_indices
end_header
-1 -1 -1
-0.3333 -1 -1
0.3333 -1 -1
1 -1 -1
-1 -0.3333 -1
-0.3333 -0.3333 -1
0.3333 -0.3333 -1
1 -0.3333 -1
-1 0.3333 -1
-0.3333 0.3333 -1
0.3333 0.3333 -1
1 0.3333 -1
-1 1 -1
-0.3333 1 -1
0.3333 1 -1
1 1 -1
-1 -1 1
-0.3333 -1 1
0.3333 -1 1
1 -1 1
-1 -0.3333 1
-0.3333 -0.3333 1
0.3333 -0.3333 1
1 -0.3333 1
-1 0.3333 1
-0.3333 0.3333 1
0.3333 0.3333 1
1 0.3333 1
-1 1 1
-0.3333 1 1
0.3333 1 1
1 1 1
-1 -1 -0.3333
-0.3333 -1 -0.3333
0.3333 -1 -0.3333
1 -1 -0.3333
-1 -1 0.3333
-0.3333 -1 0.3333
0.3333 -1 0.3333
1 -1 0.3333
-1 1 -0.3333
-0.3333 1 -0.3333
0.3333 1 -0.3333
1 1 -0.3333
-1 1 0.3333
-0.3333 1 0.3333
0.3333 1 0.3333
1 1 0.3333
-1 -0.3333 -0.3333
-1 -0.3333 0.3333
-1 0.3333 -0.3333
-1 0.3333 0.3333
1 -0.3333 -0.3333
1 -0.3333 0.3333
1 0.3333 -0.3333
1 0.3333 0.3333
3 0 4 1 
3 1 4 5 
3 16 17 20 
3 17 21 20 
3 1 5 2 
3 2 5 6 
3 17 18 21 
3 18 22 21 
3 2 6 3 
3 3 6 7 
3 18 19 22 
3 19 23 22 
3 4 8 5 
3 5 8 9 
3 20 21 24 
3 21 25 24 
3 5 9 6 
3 6 9 10 
3 21 22 25 
3 22 26 25 
3 6 10 7 
3 7 10 11 
3 22 23 26 
3 23 27 26 
3 8 12 9 
3 9 12 13 
3 24 25 28 
3 25 29 28 
3 9 13 10 
3 10 13 14 
3 25 26 29 
3 26 30 29 
3 10 14 11 
3 11 14 15 
3 26 27 30 
3 27 31 30 
3 32 33 36 
3 33 37 36 
3 40 44 41 
3 41 44 45 
3 33 34 37 
3 34 38 37 
3 41 45 42 
3 42 45 46 
3 34 35 38 
3 35 39 38 
3 42 46 43 
3 43 46 47 
3 0 1 32 
3 1 33 32 
3 16 37 17 
3 16 36 37 
3 12 40 13 
3 13 40 41 
3 28 29 45 
3 28 45 44 
3 1 2 33 
3 2 34 33 
3 17 38 18 
3 17 37 38 
3 13 41 14 
3 14 41 42 
3 29 30 46 
3 29 46 45 
3 2 3 34 
3 3 35 34 
3 18 39 19 
3 18 38 39 
3 14 42 15 
3 15 42 43 
3 30 31 47 
3 30 47 46 
3 48 49 50 
3 49 51 50 
3 52 54 53 
3 53 54 55 
3 48 36 49 
3 48 32 36 
3 50 51 40 
3 44 40 51 
3 52 53 39 
3 52 39 35 
3 54 43 55 
3 47 55 43 
3 8 4 48 
3 8 48 50 
3 24 51 20 
3 20 51 49 
3 11 52 7 
3 11 54 52 
3 27 23 55 
3 23 53 55 
3 0 32 4 
3 4 32 48 
3 12 8 50 
3 12 50 40 
3 3 7 35 
3 7 52 35 
3 15 54 11 
3 15 43 54 
3 49 16 20 
3 36 16 49 
3 44 51 24 
3 28 44 24 
3 53 23 19 
3 39 53 19 
3 47 27 55 
3 31 27 47 
